<svg width="169" height="30" viewBox="0 0 169 30" fill="none" xmlns="http://www.w3.org/2000/svg">
<mask id="mask0_1334_19" style="mask-type:alpha" maskUnits="userSpaceOnUse" x="0" y="0" width="169" height="30">
<rect width="169" height="30" fill="white"/>
</mask>
<g mask="url(#mask0_1334_19)">
<rect width="169" height="30" fill="white"/>
<path fill-rule="evenodd" clip-rule="evenodd" d="M-11 14.675V41.35H86H183V14.675V-12H86H-11V14.675ZM53.2625 0.734737C56.1502 1.69443 57.5349 3.06759 58.0541 5.48668C58.303 6.64613 58.3129 7.88636 58.0904 10.0813L57.9165 11.7953H56.4464C55.6378 11.7953 54.3515 11.8397 53.5878 11.8938L52.1993 11.9925L53.2234 13.0075C55.0678 14.8355 55.7049 16.2275 55.805 18.6459C55.8633 20.0541 55.8216 20.4436 55.4883 21.605C54.6601 24.4926 53.6153 26.1054 51.689 27.4702C50.0935 28.6006 48.6545 29.1903 46.4736 29.6077C43.3114 30.2127 40.05 29.4777 38.3487 27.7764C37.0544 26.482 36.3592 24.3799 36.5341 22.289C36.6021 21.4759 36.4989 21.6704 34.9463 25.2844L33.2858 29.1492L28.1938 29.1891L23.1016 29.2291V27.7359C23.1016 26.9146 23.0561 24.7838 23.0006 23.0008L22.8997 19.7589L22.565 21.0438C21.7875 24.0308 20.9292 25.4825 19.0611 26.9702C16.558 28.9634 13.6318 29.4563 5.39436 29.2718L1.10045 29.1757L1.19896 28.6319C1.28944 28.1318 2.29961 23.288 4.85253 11.1133C5.39436 8.52914 6.07882 5.25539 6.37346 3.83828C6.66809 2.42117 6.93272 1.18367 6.96167 1.08833C7.03821 0.835375 10.504 0.655015 15.2203 0.6585C18.9478 0.661229 19.3237 0.68654 20.4459 1.00861C21.1111 1.19943 21.8741 1.49088 22.1414 1.65609L22.6278 1.95663L22.6752 1.38191L22.7227 0.807032L27.7092 0.76702L32.6958 0.727007L32.5998 2.50999C32.5471 3.4906 32.4662 5.21371 32.4199 6.33906L32.336 8.38516L33.2582 5.96016C33.7655 4.62641 34.423 2.90435 34.7193 2.1332L35.2579 0.731251H40.2603H45.2626L45.1662 1.11531L45.0698 1.49952L45.6422 1.20867C46.1738 0.938589 47.5259 0.5274 48.4125 0.366137C49.372 0.191537 52.297 0.413879 53.2625 0.734737ZM150.53 1.07121C152.707 1.72065 153.864 2.76552 154.501 4.65748C154.757 5.4165 154.823 5.98471 154.826 7.45244C154.829 8.46564 154.883 9.19223 154.948 9.06719C155.012 8.94215 155.837 7.01549 156.781 4.78555L158.497 0.731251H163.398H168.298L168.299 1.83008C168.3 2.43436 168.365 5.07731 168.443 7.70313C168.521 10.3289 168.658 15.6829 168.746 19.6008C168.835 23.5187 168.937 27.2868 168.974 27.9746L169.042 29.225H164.199H159.356V26.7914V24.3576L158.712 24.4043L158.068 24.4508L157.586 25.6633C157.321 26.3302 156.89 27.4044 156.628 28.0504L156.151 29.225H151.312C147.988 29.225 146.473 29.1744 146.473 29.0634C146.473 28.9746 146.539 28.7799 146.619 28.6307C146.752 28.3813 146.654 28.3881 145.393 28.7156C143.72 29.15 139.747 29.4443 137.228 29.3203C136.269 29.273 129.841 29.2323 122.943 29.2297L110.402 29.225L110.399 27.141C110.397 24.4632 110.366 24.3458 109.674 24.4049L109.138 24.4508L108.149 26.8379L107.162 29.225H91.276C79.64 29.225 75.3906 29.1795 75.3906 29.0551C75.3906 28.9075 77.9905 16.6685 79.7975 8.30938C80.1309 6.76723 80.6283 4.44832 80.903 3.15625L81.4022 0.807032L87.3386 0.767323L93.275 0.727765V1.59698C93.275 2.075 93.2 3.57274 93.1081 4.92514C93.0164 6.27768 92.9685 7.46578 93.0017 7.56536C93.0349 7.66493 93.6825 6.18508 94.441 4.27675L95.8199 0.807032L101.671 0.767323C106.869 0.73216 107.522 0.753834 107.522 0.962384C107.522 1.09152 107.355 1.96179 107.15 2.89662C106.054 7.9038 105.683 9.7036 105.734 9.75468C105.765 9.7859 106.673 7.76754 107.75 5.26934L109.71 0.72731L114.717 0.767171L119.723 0.807032L119.816 9.10948C119.867 13.6759 119.943 17.4463 119.984 17.488C120.026 17.5298 120.697 16.5901 121.476 15.3996C122.254 14.2091 123.457 12.3699 124.149 11.3123C124.84 10.2548 125.406 9.35107 125.406 9.30408C125.406 9.25725 124.179 9.21875 122.678 9.21875C121.178 9.21875 119.95 9.15798 119.95 9.08356C119.95 9.00929 120.318 7.32119 120.767 5.33239C121.217 3.34358 121.631 1.49528 121.688 1.22489L121.792 0.733373L131.973 0.68366C148.063 0.604999 149.036 0.625308 150.53 1.07121ZM48.7914 2.39738C45.0198 2.87131 42.2907 5.73615 41.5923 9.95519C41.1257 12.7738 42.5493 15.2541 45.5563 16.8614C47.1053 17.6894 47.8784 18.3592 48.3291 19.2637C49.0168 20.6435 48.7231 22.0074 47.5156 23.0409C45.4469 24.8117 43.5542 23.5035 44.0026 20.6132C44.2639 18.9289 44.4044 19.0685 42.4637 19.0837C41.526 19.0909 40.4221 19.142 40.0108 19.1973L39.2631 19.2977L38.9039 20.5859C38.4571 22.1883 38.4817 24.059 38.9633 25.1345C39.6034 26.5631 41.0131 27.4645 43.0552 27.7511C45.0214 28.0269 47.9246 27.3446 50.0275 26.1121C51.8302 25.0557 52.9312 23.4456 53.5767 20.9217C54.1078 18.8451 53.8789 17.1697 52.853 15.6241C52.2807 14.7618 51.4172 14.0028 49.0203 12.255C47.1451 10.8875 46.725 10.3794 46.6271 9.36122C46.4358 7.37045 48.1263 5.76934 49.8269 6.33073C50.7892 6.64825 51.0397 7.08854 51.1114 8.58916L51.1752 9.92382L53.6208 9.85622C54.9659 9.81894 56.0908 9.76665 56.1205 9.73997C56.1504 9.7133 56.1764 8.85197 56.1784 7.82574C56.1828 5.69432 55.975 4.91028 55.1884 4.09048C53.9439 2.79341 51.2707 2.08592 48.7914 2.39738ZM11.6788 2.71248C10.106 2.77598 8.76905 2.8848 8.70767 2.95422C8.64629 3.02363 8.10627 5.43348 7.5076 8.30938C6.25963 14.3043 5.40558 18.3753 4.31585 23.5209C3.89465 25.5102 3.55 27.1534 3.55 27.1725C3.55 27.1916 4.85738 27.2489 6.45545 27.3C11.1803 27.4508 14.9079 27.049 16.5489 26.2118C18.2835 25.327 19.6152 23.7109 20.2772 21.6875C20.7038 20.3836 22.5382 11.3946 22.7899 9.37425C23.1487 6.49502 22.8886 5.02517 21.8333 3.96984C21.0486 3.1852 20.1252 2.88844 17.8727 2.69671C16.0568 2.54227 15.8852 2.54273 11.6788 2.71248ZM141.568 2.70717C139.996 2.77886 138.678 2.86859 138.64 2.90663C138.581 2.96574 137.09 9.94731 135.188 19.0703C134.901 20.4457 134.401 22.8395 134.077 24.3897L133.487 27.2083L136.431 27.303C141.18 27.4558 144.806 27.0483 146.58 26.1624C147.682 25.6116 148.944 24.3536 149.543 23.2086C150.287 21.7848 150.431 21.2375 151.657 15.2055C152.685 10.1427 152.735 9.8006 152.749 7.70313C152.762 5.67507 152.735 5.44863 152.4 4.76842C151.948 3.84904 151.065 3.25856 149.678 2.9471C148.332 2.64488 145.062 2.54818 141.568 2.70717ZM26.1477 2.81478L24.7225 2.8651L24.8207 8.73223C24.8748 11.959 24.9638 17.448 25.0187 20.9297L25.1186 27.2603L28.521 27.2195L31.9236 27.1789L37.0609 15.0618C39.8867 8.39743 42.1984 2.92406 42.1984 2.8989C42.1984 2.87374 40.944 2.85313 39.4107 2.85313C36.8968 2.85313 36.6128 2.87919 36.5183 3.11836C36.4607 3.26432 34.9462 7.30527 33.1529 12.0984C31.3594 16.8916 29.8306 20.9156 29.7555 21.0406C29.6698 21.1832 29.6482 20.9007 29.6976 20.2828C29.7409 19.741 29.88 17.0129 30.0071 14.2203C30.1339 11.4278 30.3021 7.84711 30.3808 6.26328C30.4596 4.67945 30.5249 3.23006 30.526 3.04258C30.5283 2.66974 30.4179 2.66398 26.1477 2.81478ZM82.9025 3.42149C82.8475 3.73416 82.4942 5.42211 82.1176 7.17266C81.3896 10.5566 80.5404 14.5209 79.4067 19.8281C78.3234 24.8999 77.9707 26.5443 77.8863 26.917L77.8082 27.2614L80.6477 27.2201L83.4872 27.1789L85.2537 18.2698C86.2251 13.3699 87.0643 9.31636 87.1185 9.26225C87.1726 9.20814 87.1828 9.94337 87.1411 10.8964C87.0993 11.8493 87.0282 15.9196 86.9832 19.9418L86.9012 27.2547L88.8377 27.2524L90.7742 27.2501L91.9394 24.4106C94.8043 17.4287 98.2331 9.21178 98.3164 9.12842C98.3666 9.07825 98.3731 9.16904 98.331 9.33C98.2888 9.49111 97.3849 13.5901 96.3222 18.4388L94.3899 27.2547H97.1312H99.8727L100.219 25.6254C100.409 24.7294 100.865 22.5979 101.232 20.8891C101.598 19.1802 102.144 16.6226 102.446 15.2055C103.069 12.2723 104.203 6.95971 104.66 4.82344C104.83 4.03152 105.002 3.2631 105.044 3.11578C105.114 2.86404 104.882 2.8504 101.136 2.88844L97.1541 2.92891L93.9617 10.9617C92.2059 15.3798 90.6489 19.2673 90.5014 19.6008L90.2334 20.207L90.3144 18.6914C90.4434 16.2781 90.6945 11.7815 90.8518 9.06719C90.9317 7.69176 91.0425 5.73084 91.0981 4.70977L91.1993 2.85313H87.1009H83.0025L82.9025 3.42149ZM110.799 3.3457C110.683 3.61655 109.803 5.64567 108.845 7.85469C102.225 23.1196 100.656 26.755 100.59 26.9895C100.52 27.2348 100.713 27.2547 103.153 27.2547H105.791L106.766 24.8876C107.303 23.5858 107.812 22.4985 107.897 22.4715C107.982 22.4444 109.024 22.3997 110.212 22.3721L112.372 22.3218V24.7894V27.257L121.941 27.2179L131.511 27.1789L132.075 24.9646L132.639 22.7503L131.273 22.6533C130.521 22.5999 128.826 22.5563 127.505 22.5563C126.184 22.5563 125.103 22.5231 125.103 22.4824C125.103 22.4262 131.54 13.1183 135.271 7.77891C135.6 7.30815 135.767 6.76602 136.017 5.35391C136.194 4.3536 136.376 3.38102 136.422 3.19247L136.504 2.84994L129.943 2.88935L123.382 2.92891L122.959 4.82344C122.726 5.86543 122.534 6.83604 122.531 6.98033C122.527 7.21995 122.814 7.24617 125.856 7.28345L129.185 7.32422L126.348 11.6538C124.788 14.035 122.284 17.8668 120.784 20.1688L118.055 24.3544L117.961 22.1292C117.91 20.9053 117.858 16.7325 117.847 12.8563C117.836 8.98004 117.783 5.14354 117.729 4.33086L117.631 2.85313H114.321H111.012L110.799 3.3457ZM159.762 2.9668C159.726 3.02924 158.624 5.60399 157.313 8.68828C156.002 11.7726 153.735 17.0924 152.274 20.5102C150.814 23.9279 149.586 26.8437 149.544 26.9895C149.475 27.2348 149.668 27.2547 152.114 27.2547H154.758L155.719 24.8297L156.679 22.4047H159.079H161.478V24.8297V27.2547H164.224H166.969L166.871 24.716C166.818 23.3197 166.709 19.4151 166.629 16.0391C166.55 12.663 166.44 8.31498 166.384 6.37695L166.284 2.85313H163.056C161.281 2.85313 159.799 2.90435 159.762 2.9668ZM16.2632 7.26481C17.3687 7.65023 17.4101 8.56052 16.5031 12.5531C15.9972 14.7809 15.7317 16.0988 15.1351 19.3456C14.7841 21.2561 14.4243 21.932 13.5192 22.381C12.8697 22.7033 10.5854 23.1251 10.4147 22.9543C10.3762 22.9159 10.5257 22.0093 10.7465 20.9395C11.5868 16.871 13.5531 7.21449 13.5531 7.15705C13.5531 7.01988 15.819 7.11006 16.2632 7.26481ZM146.239 7.31134C146.521 7.4294 146.826 7.66357 146.916 7.83196C147.174 8.31332 147.107 9.45761 146.716 11.2648C146.025 14.4595 145.433 17.3384 145.131 18.9724C144.556 22.0766 143.957 22.7416 141.567 22.9261L140.222 23.0297L140.32 22.6375C140.426 22.2155 142.64 11.4185 143.173 8.72617L143.496 7.09688H144.611C145.229 7.09688 145.954 7.19236 146.239 7.31134ZM113.149 9.62539C113.06 10.7771 112.914 12.9131 112.824 14.3719C112.734 15.8307 112.626 17.246 112.585 17.5168L112.51 18.0094H110.761C109.799 18.0094 109.035 17.9524 109.063 17.8827C109.091 17.813 110.029 15.4266 111.148 12.5797C112.268 9.73255 113.212 7.43198 113.247 7.4673C113.283 7.50246 113.239 8.47367 113.149 9.62539ZM161.932 12.5777C161.752 15.3567 161.578 17.7158 161.546 17.8199C161.457 18.1093 158.144 18.0883 158.144 17.7984C158.144 17.6823 158.884 15.7215 159.789 13.441C160.694 11.1604 161.596 8.87213 161.793 8.35575C161.991 7.83953 162.176 7.44138 162.206 7.47093C162.235 7.50049 162.112 9.79863 161.932 12.5777ZM131.662 16.5413L128.905 20.5102L130.814 20.5527C131.864 20.5761 132.745 20.5728 132.772 20.5453C132.829 20.4889 134.477 12.6445 134.441 12.6007C134.429 12.5853 133.178 14.3585 131.662 16.5413ZM39.3427 14.8645C39.0902 15.4689 38.776 16.2191 38.6444 16.5316L38.4053 17.1H40.3159H42.2265L41.5608 16.3596C41.1948 15.9524 40.673 15.2021 40.4012 14.6924C40.1295 14.1827 39.8835 13.7656 39.8545 13.7656C39.8254 13.7656 39.5952 14.26 39.3427 14.8645ZM73.6266 18.9566C73.2725 21.0614 72.9791 22.8007 72.9743 22.8215C72.9696 22.8423 70.0329 22.8594 66.4484 22.8594C61.7597 22.8594 59.9312 22.8119 59.9312 22.6905C59.9312 22.5317 61.3782 16.1123 61.5404 15.5516C61.6301 15.2412 62.2693 15.2099 69.4879 15.1617L74.2701 15.1297L73.6266 18.9566ZM66.5303 17.247L63.202 17.3273L63.1001 17.782C63.044 18.0321 62.8613 18.8336 62.6938 19.5629L62.3891 20.8891H66.7591C69.4407 20.8891 71.1643 20.8318 71.2205 20.741C71.2709 20.6594 71.4113 19.9604 71.5326 19.1875C71.654 18.4145 71.7886 17.6287 71.8318 17.441C71.908 17.1109 71.8779 17.1011 70.8845 17.1333C70.3202 17.1518 68.3609 17.2029 66.5303 17.247Z" fill="#14141B"/>
</g>
</svg>
